<svg viewBox="0 0 222 102" fill="none" xmlns="http://www.w3.org/2000/svg"><path d="M220.75 97.2c-11.887-.042-50.77 1.185-50.574-.746.413-4.06 4.89-20.245 4.89-22.245 0-2.46-.307-17.209-1.074-20.897s-2.607-4.916-5.521-5.53c-2.913-.615-2.76-3.842-2.453-4.61s6.441 4.61 9.354 3.995c2.914-.615-1.687-10.294-1.993-9.833-.307.46 22.083-.308 23.769-.77 1.687-.46 1.994-16.439 1.227-20.28s-.153 19.82-.153 20.742 9.507-6.76 9.814-7.221 1.074-20.896.614-21.972-4.294.922-4.754 1.229c-.461.308 1.226 23.508.92 24.276-.307.769-1.687 1.383-2.3 1.23s-.154-23.508-.613-24.277c-.461-.768-21.777 0-23.464-.153-1.686-.154-5.98 2.458-5.52 2.765.46.308 7.36-5.992 7.36-5.992l27.911.153s-9.355 6.685-10.045 6.685-25.457-.385-26.146.384c-.69.768-.767 13.06-.537 15.288s.076-9.066-.307-9.91c-.383-.846-1.304-.846-2.837.69s-.23 3.918-.384 5.916c-.153 1.998-.919-3.303-1.456-4.072-.537-.768-1.457.692-3.297.769s-.614-3.458-1.994-4.456 4.218 1.997 5.214 2.15c.997.155 1.227-1.92.843-2.918-.383-1-4.14-2.305-5.29-1.69-1.15.614 3.067 1.382 5.137.383 2.071-.998 1.074-5.3.153-7.912-.92-2.612-3.297-3.227-7.207-1.46s-1.15 6.76.306 8.067c1.458 1.305.461-1.23.231-2.152-.231-.922-1.994-1.229-1.994-2.457 0-1.23 1.763 0 2.224.153.46.153.613-2.612 0-3.38-.614-.769-4.677 2.842-5.521 2.689s-2.3-2.382-1.61-4.149 3.067-4.609 6.824-4.917 5.368 4.072 5.214 4.38c-.153.306-1.303 1.075-.69 1.843s5.597-.845 5.06-1.997c-.536-1.152-5.827 1.382-8.127 2.304-2.3.923-6.058 3.534-6.058 3.534l.307 1.997c.307 1.998 4.447 3.304 4.447 4.687 0 1.382-3.68 2.766-4.14 4.917-.461 2.15 2.147 13.828 3.987 15.364s10.121-1.69 12.115-2.611c1.994-.923.46-2.92.767-3.535.306-.614 1.38-3.38 2.147-3.687s.459 1.69.459 2.304c0 .616 4.294-1.075 4.448.308.153 1.383-7.361 3.687-7.361 3.687l-.92-2.611s-8.741 2.918-8.434 1.536c.306-1.383-2.761-13.52-3.835-14.904-1.072-1.383-2.606.769-3.987 3.534-1.379 2.766 1.381 20.742 2.3 25.352.921 4.609-3.066 15.057-5.06 18.59-1.994 3.535-13.955 4.917-17.022 4.457s13.188-1.536 14.109-2.15c.919-.616 8.127-18.285 8.127-18.285s1.84 1.076 4.754 1.076 12.422-1.076 12.268-1.537 0 0-.306 1.23c-.307 1.228 1.379 20.28 1.379 23.046s-4.139 20.281-5.06 21.05c-.92.768-.613 0-2.3.307s-1.073 3.551-.92 4.78 6.831 1.23 10.512.615c1.621-.271 1.13-1.517-.645-2.44-2.254-1.172-6.187-2.033-6.187-2.033s-5.367 0-4.447-.461 2.147-18.284 2.761-19.667c.613-1.383-3.681-21.05-2.915-21.51.768-.462-11.195 17.208-13.494 18.898-2.301 1.69-14.876 1.998-18.71 1.69-3.833-.307-6.441 1.537-6.441 2.766s4.141-3.073 4.141-3.073l.614-4.456s-1.841 0-3.527.46c-1.162.318-2.665 3.818-3.571 6.215-.209.555-.591 2.51-.434 3.686.106.795 1.942-.47 2.233-1.185.109-.27-125.062-.026-127.305-.187" stroke="#2563eb" stroke-width="1.5" stroke-miterlimit="10" stroke-linecap="round" stroke-linejoin="round"/></svg>