<svg viewBox="0 0 358 444" fill="none" xmlns="http://www.w3.org/2000/svg"><g clip-path="url(#a)"><path d="M179.186 218.949a2 2 0 0 0-.17 0l-.052.001a3 3 0 0 0-.172.023 3 3 0 0 0-.167.023q-.084.016-.167.036-.076.014-.149.032h-.023l-.05.022a3 3 0 0 0-.378.139l-.156.07a4 4 0 0 0-.436.257 3 3 0 0 0-.269.207 3 3 0 0 0-.247.233l-.115.125a3 3 0 0 0-.21.268 3 3 0 0 0-.096.141q-.046.072-.088.145a4 4 0 0 0-.151.304 5 5 0 0 0-.122.318 3 3 0 0 0-.123.495l-.024.169q-.014.084-.023.17v.401l.001.055q.01.084.023.168a3 3 0 0 0 .023.17q.017.085.036.168.014.077.032.153v.022l.023.05a3 3 0 0 0 .137.381q.032.078.068.155.038.076.079.149a3.5 3.5 0 0 0 .274.43 3 3 0 0 0 .22.258q.057.063.12.121a3 3 0 0 0 .255.224 3 3 0 0 0 .276.198q.07.046.144.089.074.041.15.079a3 3 0 0 0 .31.139 3 3 0 0 0 .653.181q.084.016.167.025.084.014.168.023h.169l.066.003h.17l.052-.003q.086-.008.172-.022.083-.01.167-.023.083-.016.165-.036a3 3 0 0 0 .152-.032h.023l.049-.023a3 3 0 0 0 .38-.138 3 3 0 0 0 .305-.15 3 3 0 0 0 .29-.177 3.5 3.5 0 0 0 .516-.438 3 3 0 0 0 .325-.391l.096-.14.088-.146q.041-.075.078-.152a3 3 0 0 0 .136-.309q.031-.08.059-.161.026-.08.047-.161a2.4 2.4 0 0 0 .075-.334q.015-.084.025-.168.013-.085.023-.17v-.404l-.003-.052a3 3 0 0 0-.022-.173 3 3 0 0 0-.058-.336q-.014-.076-.032-.153v-.022l-.023-.05a3.6 3.6 0 0 0-.205-.536q-.039-.075-.08-.149a3 3 0 0 0-.176-.289q-.048-.07-.1-.138a3.4 3.4 0 0 0-.595-.604q-.066-.053-.135-.103a4 4 0 0 0-.288-.183 4 4 0 0 0-.303-.155 4 4 0 0 0-.477-.17 3 3 0 0 0-.33-.075 3 3 0 0 0-.169-.025 2 2 0 0 0-.168-.022 2 2 0 0 0-.169 0l-.064-.003z" fill="#fff"/><path d="M179.186 218.949a2 2 0 0 0-.17 0l-.052.001a3 3 0 0 0-.172.023 3 3 0 0 0-.167.023q-.084.016-.167.036-.076.014-.149.032h-.023l-.05.022a3 3 0 0 0-.378.139l-.156.07a4 4 0 0 0-.436.257 3 3 0 0 0-.269.207 3 3 0 0 0-.247.233l-.115.125a3 3 0 0 0-.21.268 3 3 0 0 0-.096.141q-.046.072-.088.145a4 4 0 0 0-.151.304 5 5 0 0 0-.122.318 3 3 0 0 0-.123.495l-.024.169q-.014.084-.023.17v.401l.001.055q.01.084.023.168.01.087.023.172.017.085.036.168.014.076.032.151v.022l.023.05a3 3 0 0 0 .137.381q.032.078.068.155.038.076.079.149a3.5 3.5 0 0 0 .274.43 3 3 0 0 0 .22.258q.057.063.12.121a3 3 0 0 0 .255.224 3 3 0 0 0 .276.198q.07.046.144.089.074.041.15.079a3 3 0 0 0 .31.139 3 3 0 0 0 .653.179q.084.014.167.025.084.013.168.023h.405l.052-.002q.086-.009.172-.023l.167-.022q.083-.017.165-.037.076-.014.152-.032h.023l.049-.022a3.3 3.3 0 0 0 .685-.289 3 3 0 0 0 .29-.177 3.5 3.5 0 0 0 .396-.317l.12-.121q.058-.06.114-.122.058-.065.109-.132l.102-.136q.049-.069.096-.141l.088-.146q.041-.074.078-.151a3 3 0 0 0 .136-.31q.031-.079.059-.16.026-.08.047-.162a3 3 0 0 0 .075-.334q.015-.083.025-.168.013-.084.023-.17v-.233a5 5 0 0 0-.003-.225 3 3 0 0 0-.022-.173 3 3 0 0 0-.023-.168 3 3 0 0 0-.035-.168q-.014-.075-.032-.15v-.022l-.023-.05a3 3 0 0 0-.138-.382q-.032-.078-.067-.154l-.08-.15a3 3 0 0 0-.083-.148l-.093-.14q-.048-.07-.1-.139a4 4 0 0 0-.219-.261 3 3 0 0 0-.12-.12 3 3 0 0 0-.256-.225 3 3 0 0 0-.278-.198 3 3 0 0 0-.294-.168l-.154-.075-.155-.063-.159-.06a4 4 0 0 0-.493-.122l-.169-.025a3 3 0 0 0-.168-.022 2 2 0 0 0-.169 0z" fill="#fff"/><path d="M179.186 218.949a2 2 0 0 0-.17 0l-.052.001a3 3 0 0 0-.172.023 3 3 0 0 0-.167.023q-.084.016-.167.036-.076.014-.149.032h-.023l-.05.022a3 3 0 0 0-.378.139l-.156.07a4 4 0 0 0-.436.257 3 3 0 0 0-.269.207 3 3 0 0 0-.247.233l-.115.125a3 3 0 0 0-.21.268 3 3 0 0 0-.096.141q-.046.072-.088.145a4 4 0 0 0-.151.304 5 5 0 0 0-.122.318 3 3 0 0 0-.123.495l-.024.169q-.014.084-.023.17v.401l.001.055q.01.084.023.168.01.087.023.172.017.085.036.168.014.076.032.151v.022l.023.05a3 3 0 0 0 .137.381q.032.078.068.155.038.076.079.149a3.5 3.5 0 0 0 .274.43 3 3 0 0 0 .22.258q.057.063.12.121a3 3 0 0 0 .255.224 3 3 0 0 0 .276.198q.07.046.144.089.074.041.15.079a3 3 0 0 0 .31.139 3 3 0 0 0 .653.179q.084.014.167.025.084.013.168.023h.405l.052-.002q.086-.009.172-.023l.167-.022q.083-.017.165-.037.076-.014.152-.032h.023l.049-.022a3.3 3.3 0 0 0 .685-.289 3 3 0 0 0 .29-.177 3.5 3.5 0 0 0 .396-.317l.12-.121q.058-.06.114-.122.058-.065.109-.132l.102-.136q.049-.069.096-.141l.088-.146q.041-.074.078-.151a3 3 0 0 0 .136-.31q.031-.079.059-.16.026-.08.047-.162a3 3 0 0 0 .075-.334q.015-.083.025-.168.013-.084.023-.17v-.233a5 5 0 0 0-.003-.225 3 3 0 0 0-.022-.173 3 3 0 0 0-.023-.168 3 3 0 0 0-.035-.168q-.014-.075-.032-.15v-.022l-.023-.05a3 3 0 0 0-.138-.382q-.032-.078-.067-.154l-.08-.15a3 3 0 0 0-.083-.148l-.093-.14q-.048-.07-.1-.139a4 4 0 0 0-.219-.261 3 3 0 0 0-.12-.12 3 3 0 0 0-.256-.225 3 3 0 0 0-.278-.198 3 3 0 0 0-.294-.168l-.154-.075-.155-.063-.159-.06a4 4 0 0 0-.493-.122l-.169-.025a3 3 0 0 0-.168-.022 2 2 0 0 0-.169 0z" fill="#fff"/><path d="M179.186 218.949a2 2 0 0 0-.17 0l-.052.001a3 3 0 0 0-.172.023 3 3 0 0 0-.167.023q-.084.016-.167.036-.076.014-.149.032h-.023l-.05.022a3 3 0 0 0-.378.139l-.156.07a4 4 0 0 0-.436.257 3 3 0 0 0-.269.207 3 3 0 0 0-.247.233l-.115.125a3 3 0 0 0-.21.268 3 3 0 0 0-.096.141q-.046.072-.088.145a4 4 0 0 0-.151.304 5 5 0 0 0-.122.318 3 3 0 0 0-.123.495l-.024.169q-.014.084-.023.17v.401l.001.055q.01.084.023.168.01.087.023.172.017.085.036.168.014.076.032.151v.022l.023.05a3 3 0 0 0 .137.381q.032.078.068.155.038.076.079.149a3.5 3.5 0 0 0 .274.43 3 3 0 0 0 .22.258q.057.063.12.121a3 3 0 0 0 .255.224 3 3 0 0 0 .276.198q.07.046.144.089.074.041.15.079a3 3 0 0 0 .31.139 3 3 0 0 0 .653.179q.084.014.167.025.084.013.168.023h.405l.052-.002q.086-.009.172-.023l.167-.022q.083-.017.165-.037.076-.014.152-.032h.023l.049-.022a3.3 3.3 0 0 0 .685-.289 3 3 0 0 0 .29-.177 3.5 3.5 0 0 0 .396-.317l.12-.121q.058-.06.114-.122.058-.065.109-.132l.102-.136q.049-.069.096-.141l.088-.146q.041-.074.078-.151a3 3 0 0 0 .136-.31q.031-.079.059-.16.026-.08.047-.162a3 3 0 0 0 .075-.334q.015-.083.025-.168.013-.084.023-.17v-.233a5 5 0 0 0-.003-.225 3 3 0 0 0-.022-.173 3 3 0 0 0-.023-.168 3 3 0 0 0-.035-.168q-.014-.075-.032-.15v-.022l-.023-.05a3 3 0 0 0-.138-.382q-.032-.078-.067-.154l-.08-.15a3 3 0 0 0-.083-.148l-.093-.14q-.048-.07-.1-.139a4 4 0 0 0-.219-.261 3 3 0 0 0-.12-.12 3 3 0 0 0-.256-.225 3 3 0 0 0-.278-.198 3 3 0 0 0-.294-.168l-.154-.075-.155-.063-.159-.06a4 4 0 0 0-.493-.122l-.169-.025a3 3 0 0 0-.168-.022 2 2 0 0 0-.169 0z" fill="#fff"/><path d="M179.186 218.949a2 2 0 0 0-.17 0l-.052.001a3 3 0 0 0-.172.023 3 3 0 0 0-.167.023q-.084.016-.167.036-.076.014-.149.032h-.023l-.05.022a3 3 0 0 0-.378.139l-.156.07a4 4 0 0 0-.436.257 3 3 0 0 0-.269.207 3 3 0 0 0-.247.233l-.115.125a3 3 0 0 0-.21.268 3 3 0 0 0-.096.141q-.046.072-.088.145a4 4 0 0 0-.151.304 5 5 0 0 0-.122.318 3 3 0 0 0-.123.495l-.024.169q-.014.084-.023.17v.401l.001.055q.01.084.023.168.01.087.023.172.017.085.036.168.014.076.032.151v.022l.023.05a3 3 0 0 0 .137.381q.032.078.068.155.038.076.079.149a3.5 3.5 0 0 0 .274.43 3 3 0 0 0 .22.258q.057.063.12.121a3 3 0 0 0 .255.224 3 3 0 0 0 .276.198q.07.046.144.089.074.041.15.079a3 3 0 0 0 .31.139 3 3 0 0 0 .653.179q.084.014.167.025.084.013.168.023h.405l.052-.002q.086-.009.172-.023l.167-.022q.083-.017.165-.037.076-.014.152-.032h.023l.049-.022a3.3 3.3 0 0 0 .685-.289 3 3 0 0 0 .29-.177 3.5 3.5 0 0 0 .396-.317l.12-.121q.058-.06.114-.122.058-.065.109-.132l.102-.136q.049-.069.096-.141l.088-.146q.041-.074.078-.151a3 3 0 0 0 .136-.31q.031-.079.059-.16.026-.08.047-.162a3 3 0 0 0 .075-.334q.015-.083.025-.168.013-.084.023-.17v-.233a5 5 0 0 0-.003-.225 3 3 0 0 0-.022-.173 3 3 0 0 0-.023-.168 3 3 0 0 0-.035-.168q-.014-.075-.032-.15v-.022l-.023-.05a3 3 0 0 0-.138-.382q-.032-.078-.067-.154l-.08-.15a3 3 0 0 0-.083-.148l-.093-.14q-.048-.07-.1-.139a4 4 0 0 0-.219-.261 3 3 0 0 0-.12-.12 3 3 0 0 0-.256-.225 3 3 0 0 0-.278-.198 3 3 0 0 0-.294-.168l-.154-.075-.155-.063-.159-.06a4 4 0 0 0-.493-.122l-.169-.025a3 3 0 0 0-.168-.022 2 2 0 0 0-.169 0z" fill="#fff"/><path d="M179.186 218.949a2 2 0 0 0-.17 0l-.052.001a3 3 0 0 0-.172.023 3 3 0 0 0-.167.023q-.084.016-.167.036-.076.014-.149.032h-.023l-.05.022a3 3 0 0 0-.378.139l-.156.07a4 4 0 0 0-.436.257 3 3 0 0 0-.269.207 3 3 0 0 0-.247.233l-.115.125a3 3 0 0 0-.21.268 3 3 0 0 0-.096.141q-.046.072-.088.145a4 4 0 0 0-.151.304 5 5 0 0 0-.122.318 3 3 0 0 0-.123.495l-.024.169q-.014.084-.023.17v.401l.001.055q.01.084.023.168.01.087.023.172.017.085.036.168.014.076.032.151v.022l.023.05a3 3 0 0 0 .137.381q.032.078.068.155.038.076.079.149a3.5 3.5 0 0 0 .274.43 3 3 0 0 0 .22.258q.057.063.12.121a3 3 0 0 0 .255.224 3 3 0 0 0 .276.198q.07.046.144.089.074.041.15.079a3 3 0 0 0 .31.139 3 3 0 0 0 .653.179q.084.014.167.025.084.013.168.023h.405l.052-.002q.086-.009.172-.023l.167-.022q.083-.017.165-.037.076-.014.152-.032h.023l.049-.022a3.3 3.3 0 0 0 .685-.289 3 3 0 0 0 .29-.177 3.5 3.5 0 0 0 .396-.317l.12-.121q.058-.06.114-.122.058-.065.109-.132l.102-.136q.049-.069.096-.141l.088-.146q.041-.074.078-.151a3 3 0 0 0 .136-.31q.031-.079.059-.16.026-.08.047-.162a3 3 0 0 0 .075-.334q.015-.083.025-.168.013-.084.023-.17v-.233a5 5 0 0 0-.003-.225 3 3 0 0 0-.022-.173 3 3 0 0 0-.023-.168 3 3 0 0 0-.035-.168q-.014-.075-.032-.15v-.022l-.023-.05a3 3 0 0 0-.138-.382q-.032-.078-.067-.154l-.08-.15a3 3 0 0 0-.083-.148l-.093-.14q-.048-.07-.1-.139a4 4 0 0 0-.219-.261 3 3 0 0 0-.12-.12 3 3 0 0 0-.256-.225 3 3 0 0 0-.278-.198 3 3 0 0 0-.294-.168l-.154-.075-.155-.063-.159-.06a4 4 0 0 0-.493-.122l-.169-.025a3 3 0 0 0-.168-.022 2 2 0 0 0-.169 0z" fill="#fff"/><path d="M179.186 218.949a2 2 0 0 0-.17 0l-.052.001a3 3 0 0 0-.172.023 3 3 0 0 0-.167.023q-.084.016-.167.036-.076.014-.149.032h-.023l-.05.022a3 3 0 0 0-.378.139l-.156.07a4 4 0 0 0-.436.257 3 3 0 0 0-.269.207 3 3 0 0 0-.247.233l-.115.125a3 3 0 0 0-.21.268 3 3 0 0 0-.096.141q-.046.072-.088.145a4 4 0 0 0-.151.304 5 5 0 0 0-.122.318 3 3 0 0 0-.123.495l-.024.169q-.014.084-.023.17v.401l.001.055q.01.084.023.168.01.087.023.172.017.085.036.168.014.076.032.151v.022l.023.05a3 3 0 0 0 .137.381q.032.078.068.155.038.076.079.149a3.5 3.5 0 0 0 .274.43 3 3 0 0 0 .22.258q.057.063.12.121a3 3 0 0 0 .255.224 3 3 0 0 0 .276.198q.07.046.144.089.074.041.15.079a3 3 0 0 0 .31.139 3 3 0 0 0 .653.179q.084.014.167.025.084.013.168.023h.405l.052-.002q.086-.009.172-.023l.167-.022q.083-.017.165-.037.076-.014.152-.032h.023l.049-.022a3.3 3.3 0 0 0 .685-.289 3 3 0 0 0 .29-.177 3.5 3.5 0 0 0 .396-.317l.12-.121q.058-.06.114-.122.058-.065.109-.132l.102-.136q.049-.069.096-.141l.088-.146q.041-.074.078-.151a3 3 0 0 0 .136-.31q.031-.079.059-.16.026-.08.047-.162a3 3 0 0 0 .075-.334q.015-.083.025-.168.013-.084.023-.17v-.233a5 5 0 0 0-.003-.225 3 3 0 0 0-.022-.173 3 3 0 0 0-.023-.168 3 3 0 0 0-.035-.168q-.014-.075-.032-.15v-.022l-.023-.05a3 3 0 0 0-.138-.382q-.032-.078-.067-.154l-.08-.15a3 3 0 0 0-.083-.148l-.093-.14q-.048-.07-.1-.139a4 4 0 0 0-.219-.261 3 3 0 0 0-.12-.12 3 3 0 0 0-.256-.225 3 3 0 0 0-.278-.198 3 3 0 0 0-.294-.168l-.154-.075-.155-.063-.159-.06a4 4 0 0 0-.493-.122l-.169-.025a3 3 0 0 0-.168-.022 2 2 0 0 0-.169 0z" fill="#fff"/><path d="M179.186 218.949a2 2 0 0 0-.17 0l-.052.001a3 3 0 0 0-.172.023 3 3 0 0 0-.167.023q-.084.016-.167.036-.076.014-.149.032h-.023l-.05.022a3 3 0 0 0-.378.139l-.156.07a4 4 0 0 0-.436.257 3 3 0 0 0-.269.207 3 3 0 0 0-.247.233l-.115.125a3 3 0 0 0-.21.268 3 3 0 0 0-.096.141q-.046.072-.088.145a4 4 0 0 0-.151.304 5 5 0 0 0-.122.318 3 3 0 0 0-.123.495l-.024.169q-.014.084-.023.17v.401l.001.055q.01.084.023.168.01.087.023.172.017.085.036.168.014.076.032.151v.022l.023.05a3 3 0 0 0 .137.381q.032.078.068.155.038.076.079.149a3.5 3.5 0 0 0 .274.43 3 3 0 0 0 .22.258q.057.063.12.121a3 3 0 0 0 .255.224 3 3 0 0 0 .276.198q.07.046.144.089.074.041.15.079a3 3 0 0 0 .31.139 3 3 0 0 0 .653.179q.084.014.167.025.084.013.168.023h.405l.052-.002q.086-.009.172-.023l.167-.022q.083-.017.165-.037.076-.014.152-.032h.023l.049-.022a3.3 3.3 0 0 0 .685-.289 3 3 0 0 0 .29-.177 3.5 3.5 0 0 0 .396-.317l.12-.121q.058-.06.114-.122.058-.065.109-.132l.102-.136q.049-.069.096-.141l.088-.146q.041-.074.078-.151a3 3 0 0 0 .136-.31q.031-.079.059-.16.026-.08.047-.162a3 3 0 0 0 .075-.334q.015-.083.025-.168.013-.084.023-.17v-.233a5 5 0 0 0-.003-.225 3 3 0 0 0-.022-.173 3 3 0 0 0-.023-.168 3 3 0 0 0-.035-.168q-.014-.075-.032-.15v-.022l-.023-.05a3 3 0 0 0-.138-.382q-.032-.078-.067-.154l-.08-.15a3 3 0 0 0-.083-.148l-.093-.14q-.048-.07-.1-.139a4 4 0 0 0-.219-.261 3 3 0 0 0-.12-.12 3 3 0 0 0-.256-.225 3 3 0 0 0-.278-.198 3 3 0 0 0-.294-.168l-.154-.075-.155-.063-.159-.06a4 4 0 0 0-.493-.122l-.169-.025a3 3 0 0 0-.168-.022 2 2 0 0 0-.169 0z" fill="#fff"/><path d="M179.186 218.949a2 2 0 0 0-.17 0l-.052.001a3 3 0 0 0-.172.023 3 3 0 0 0-.167.023q-.084.016-.167.036-.076.014-.149.032h-.023l-.05.022a3 3 0 0 0-.378.139l-.156.07a4 4 0 0 0-.436.257 3 3 0 0 0-.269.207 3 3 0 0 0-.247.233l-.115.125a3 3 0 0 0-.21.268 3 3 0 0 0-.096.141q-.046.072-.088.145a4 4 0 0 0-.151.304 5 5 0 0 0-.122.318 3 3 0 0 0-.123.495l-.024.169q-.014.084-.023.17v.401l.001.055q.01.084.023.168.01.087.023.172.017.085.036.168.014.076.032.151v.022l.023.05a3 3 0 0 0 .137.381q.032.078.068.155.038.076.079.149a3.5 3.5 0 0 0 .274.43 3 3 0 0 0 .22.258q.057.063.12.121a3 3 0 0 0 .255.224 3 3 0 0 0 .276.198q.07.046.144.089.074.041.15.079a3 3 0 0 0 .31.139 3 3 0 0 0 .653.179q.084.014.167.025.084.013.168.023h.405l.052-.002q.086-.009.172-.023l.167-.022q.083-.017.165-.037.076-.014.152-.032h.023l.049-.022a3.3 3.3 0 0 0 .685-.289 3 3 0 0 0 .29-.177 3.5 3.5 0 0 0 .396-.317l.12-.121q.058-.06.114-.122.058-.065.109-.132l.102-.136q.049-.069.096-.141l.088-.146q.041-.074.078-.151a3 3 0 0 0 .136-.31q.031-.079.059-.16.026-.08.047-.162a3 3 0 0 0 .075-.334q.015-.083.025-.168.013-.084.023-.17v-.233a5 5 0 0 0-.003-.225 3 3 0 0 0-.022-.173 3 3 0 0 0-.023-.168 3 3 0 0 0-.035-.168q-.014-.075-.032-.15v-.022l-.023-.05a3 3 0 0 0-.138-.382q-.032-.078-.067-.154l-.08-.15a3 3 0 0 0-.083-.148l-.093-.14q-.048-.07-.1-.139a4 4 0 0 0-.219-.261 3 3 0 0 0-.12-.12 3 3 0 0 0-.256-.225 3 3 0 0 0-.278-.198 3 3 0 0 0-.294-.168l-.154-.075-.155-.063-.159-.06a4 4 0 0 0-.493-.122l-.169-.025a3 3 0 0 0-.168-.022 2 2 0 0 0-.169 0z" fill="#fff"/><path d="M179.186 218.949a2 2 0 0 0-.17 0l-.052.001a3 3 0 0 0-.172.023 3 3 0 0 0-.167.023q-.084.016-.167.036-.076.014-.149.032h-.023l-.05.022a3 3 0 0 0-.378.139l-.156.07a4 4 0 0 0-.436.257 3 3 0 0 0-.269.207 3 3 0 0 0-.247.233l-.115.125a3 3 0 0 0-.21.268 3 3 0 0 0-.096.141q-.046.072-.088.145a4 4 0 0 0-.151.304 5 5 0 0 0-.122.318 3 3 0 0 0-.123.495l-.024.169q-.014.084-.023.17v.401l.001.055q.01.084.023.168.01.087.023.172.017.085.036.168.014.076.032.151v.022l.023.05a3 3 0 0 0 .137.381q.032.078.068.155.038.076.079.149a3.5 3.5 0 0 0 .274.43 3 3 0 0 0 .22.258q.057.063.12.121a3 3 0 0 0 .255.224 3 3 0 0 0 .276.198q.07.046.144.089.074.041.15.079a3 3 0 0 0 .31.139 3 3 0 0 0 .653.179q.084.014.167.025.084.013.168.023h.405l.052-.002q.086-.009.172-.023l.167-.022q.083-.017.165-.037.076-.014.152-.032h.023l.049-.022a3.3 3.3 0 0 0 .685-.289 3 3 0 0 0 .29-.177 3.5 3.5 0 0 0 .396-.317l.12-.121q.058-.06.114-.122.058-.065.109-.132l.102-.136q.049-.069.096-.141l.088-.146q.041-.074.078-.151a3 3 0 0 0 .136-.31q.031-.079.059-.16.026-.08.047-.162a3 3 0 0 0 .075-.334q.015-.083.025-.168.013-.084.023-.17v-.233a5 5 0 0 0-.003-.225 3 3 0 0 0-.022-.173 3 3 0 0 0-.023-.168 3 3 0 0 0-.035-.168q-.014-.075-.032-.15v-.022l-.023-.05a3 3 0 0 0-.138-.382q-.032-.078-.067-.154l-.08-.15a3 3 0 0 0-.083-.148l-.093-.14q-.048-.07-.1-.139a4 4 0 0 0-.219-.261 3 3 0 0 0-.12-.12 3 3 0 0 0-.256-.225 3 3 0 0 0-.278-.198 3 3 0 0 0-.294-.168l-.154-.075-.155-.063-.159-.06a4 4 0 0 0-.493-.122l-.169-.025a3 3 0 0 0-.168-.022 2 2 0 0 0-.169 0z" fill="#fff"/><path d="M239.627 291.076c0 8.377-27.058 15.168-60.435 15.168s-60.435-6.791-60.435-15.168c0-4.023 6.367-7.88 17.701-10.725s26.705-4.442 42.734-4.442c16.028 0 31.399 1.598 42.733 4.442s17.702 6.702 17.702 10.725" fill="#ccc"/><path d="M161.908 252.928c-2.022 15.421-10.019 36.664-16.338 35.829s-8.567-23.432-6.544-38.853c2.021-15.421 9.189-17.607 13.867-16.988s11.038 4.592 9.015 20.012" fill="#a3e635"/><path d="M153.313 229.71c-3.037-.401-7.124.2-10.515 3.292s-5.893 8.299-6.966 16.48c-1.058 8.066-1 17.74.15 25.778.574 4.018 1.403 7.611 2.659 10.526 1.257 2.916 3.09 5.725 6.508 6.176s5.914-1.785 7.879-4.274 3.692-5.745 5.283-9.477c3.183-7.466 5.732-16.795 6.79-24.861 1.073-8.18 0-13.861-2.479-17.728s-6.271-5.51-9.309-5.912m-.841 6.411c1.642.217 3.368.869 4.733 3 1.365 2.129 2.459 6.146 1.51 13.386-.964 7.353-3.424 16.356-6.326 23.159-1.45 3.402-3.035 6.264-4.409 8.005-1.03 1.306-1.78 1.692-1.982 1.817-.161-.173-.786-.741-1.445-2.27-.879-2.038-1.671-5.215-2.196-8.877-1.047-7.326-1.103-16.661-.139-24.015.95-7.24 3.042-10.834 4.91-12.537s3.703-1.885 5.344-1.668" fill="#1a1a1a"/><path d="M219.357 249.905c2.022 15.42-.226 38.018-6.544 38.853-6.32.834-14.317-20.409-16.339-35.829-2.023-15.421 4.337-19.395 9.016-20.013 4.678-.618 11.845 1.568 13.867 16.989" fill="#a3e635"/><path d="M205.069 229.71c-3.038.402-6.831 2.045-9.309 5.912-2.479 3.867-3.552 9.548-2.479 17.729 1.058 8.066 3.607 17.395 6.79 24.86 1.591 3.733 3.318 6.988 5.283 9.477s4.46 4.726 7.879 4.274 5.251-3.26 6.508-6.176c1.256-2.915 2.084-6.508 2.659-10.526 1.15-8.038 1.207-17.712.15-25.778-1.074-8.18-3.575-13.389-6.966-16.48s-7.478-3.693-10.515-3.292m.841 6.411c1.64-.217 3.476-.035 5.344 1.668 1.867 1.703 3.96 5.297 4.909 12.537.965 7.354.909 16.689-.139 24.015-.524 3.662-1.317 6.839-2.195 8.877-.659 1.529-1.284 2.097-1.446 2.27-.201-.125-.951-.511-1.981-1.817-1.375-1.741-2.959-4.603-4.41-8.004-2.901-6.804-5.361-15.806-6.325-23.16-.95-7.24.145-11.257 1.51-13.386 1.365-2.13 3.091-2.783 4.733-3" fill="#1a1a1a"/><path d="M105.213 178.746c-9.431 12.34-26.938 26.724-31.994 22.828-5.057-3.895 4.252-24.593 13.683-36.933s16.727-10.635 20.471-7.751 7.272 9.518-2.16 21.856" fill="#a3e635"/><path d="M109.334 154.326c-2.431-1.873-6.27-3.403-10.746-2.428s-9.237 4.23-14.24 10.776c-4.934 6.455-9.702 14.861-12.71 22.399-1.503 3.769-2.576 7.296-2.94 10.452s-.175 6.508 2.56 8.615c2.736 2.107 6.01 1.422 8.953.253 2.941-1.17 6.058-3.123 9.295-5.556 6.475-4.868 13.329-11.667 18.262-18.121 5.004-6.547 6.904-12.006 6.683-16.598-.22-4.594-2.686-7.92-5.117-9.792m-3.921 5.13c1.313 1.011 2.483 2.443 2.604 4.973s-.931 6.557-5.359 12.35c-4.497 5.885-11.112 12.446-17.013 16.882-2.95 2.218-5.748 3.901-7.806 4.719-1.542.613-2.384.572-2.62.579-.055-.231-.313-1.037-.121-2.691.254-2.207 1.15-5.356 2.52-8.791 2.74-6.87 7.342-14.982 11.84-20.867 4.428-5.793 8.03-7.855 10.496-8.393 2.466-.536 4.146.227 5.459 1.239" fill="#1a1a1a"/><path d="M271.479 164.642c9.432 12.339 18.74 33.037 13.684 36.932-5.057 3.896-22.562-10.488-31.994-22.827s-5.904-18.973-2.16-21.857 11.039-4.588 20.47 7.752" fill="#a3e635"/><path d="M249.048 154.326c-2.43 1.872-4.896 5.199-5.117 9.791-.22 4.594 1.68 10.052 6.682 16.599 4.934 6.454 11.789 13.254 18.263 18.121 3.238 2.433 6.353 4.386 9.295 5.556s6.216 1.854 8.952-.253 2.924-5.46 2.561-8.615c-.364-3.155-1.437-6.683-2.94-10.452-3.007-7.538-7.776-15.944-12.709-22.399-5.003-6.546-9.765-9.801-14.241-10.776s-8.315.556-10.746 2.428m3.921 5.13c1.314-1.012 2.994-1.775 5.459-1.239 2.466.538 6.068 2.601 10.497 8.393 4.498 5.885 9.099 13.998 11.84 20.867 1.37 3.436 2.266 6.585 2.52 8.791.191 1.655-.067 2.46-.121 2.691-.237-.013-1.078.035-2.621-.579-2.058-.817-4.856-2.501-7.806-4.719-5.9-4.436-12.515-10.997-17.013-16.882-4.428-5.793-5.48-9.82-5.359-12.35s1.291-3.962 2.605-4.973z" fill="#1a1a1a"/><path d="M131.252 56.978c-20.472 0-37.114 16.706-37.114 37.258v128.336c0 20.552 16.642 37.259 37.114 37.259h95.877c20.471 0 37.112-16.707 37.112-37.259V94.236c0-20.552-16.641-37.259-37.112-37.259zm0 10.348h95.877c14.939 0 26.805 11.912 26.805 26.91v128.336c0 14.998-11.866 26.91-26.805 26.91h-95.877c-14.94 0-26.807-11.912-26.807-26.91V94.236c0-14.998 11.867-26.91 26.807-26.91" fill="#1a1a1a"/><path d="M131.25 62.152h95.878c17.705 0 31.959 14.31 31.959 32.085v128.336c0 17.774-14.254 32.084-31.959 32.084H131.25c-17.705 0-31.959-14.31-31.959-32.084V94.237c0-17.775 14.254-32.085 31.959-32.085" fill="#d9f5a3"/><path d="M99.291 196.286v26.286c0 17.775 14.254 32.085 31.96 32.085h95.877c17.705 0 31.959-14.31 31.959-32.085v-26.285c0 20.962-16.809 37.837-37.69 37.837h-84.416c-20.88 0-37.69-16.875-37.69-37.837z" fill="#a3e635"/><path d="M136.982 77.277c-12.474 0-22.029 9.59-22.029 22.113v118.03c0 12.522 9.555 22.112 22.029 22.112h10.467c-12.474 0-22.029-9.59-22.029-22.112V99.39c0-12.522 9.555-22.113 22.029-22.113z" fill="#fff"/><path d="M225.858 209.337a7.43 7.43 0 0 1-2.163 5.243 7.37 7.37 0 0 1-5.222 2.172 7.37 7.37 0 0 1-5.222-2.172 7.43 7.43 0 0 1-2.163-5.243c0-4.094 3.306-7.414 7.385-7.414s7.385 3.32 7.385 7.414m-20.186-19.87a4.66 4.66 0 0 1-1.355 3.286 4.617 4.617 0 0 1-6.545 0 4.65 4.65 0 0 1-1.356-3.286c0-2.566 2.072-4.646 4.628-4.646s4.628 2.08 4.628 4.646m-42.933 6.722a4.66 4.66 0 0 1-1.356 3.286 4.62 4.62 0 0 1-3.273 1.361 4.62 4.62 0 0 1-3.272-1.361 4.66 4.66 0 0 1-1.356-3.286c0-2.566 2.073-4.646 4.628-4.646 2.557 0 4.629 2.08 4.629 4.646" fill="#a3e635"/><path d="M234.281 102.725c0 2.566-2.072 4.646-4.628 4.646a4.62 4.62 0 0 1-3.273-1.361 4.66 4.66 0 0 1 0-6.57 4.62 4.62 0 0 1 3.273-1.362c2.556 0 4.628 2.08 4.628 4.647M176.22 141.6c0 2.566-2.073 4.646-4.629 4.646a4.62 4.62 0 0 1-3.272-1.361 4.65 4.65 0 0 1-1.356-3.285c0-1.233.487-2.414 1.356-3.286a4.62 4.62 0 0 1 3.272-1.361c2.556 0 4.629 2.08 4.629 4.647" fill="#d9f5a3"/><path d="M131.251 60.858c-18.397 0-33.248 14.909-33.248 33.378v128.337c0 18.468 14.851 33.377 33.248 33.377h95.877c18.397 0 33.248-14.909 33.248-33.377V94.236c0-18.469-14.851-33.378-33.248-33.378zm0 2.588h95.877c17.014 0 30.671 13.71 30.671 30.79v128.337c0 17.08-13.657 30.79-30.671 30.79h-95.877c-17.014 0-30.671-13.71-30.671-30.79V94.236c0-17.08 13.657-30.79 30.671-30.79" fill="#1a1a1a"/><path d="M149.363 190.302c-3.445 0-6.22-2.785-6.22-6.245v-7.047c0-19.986 16.139-36.188 36.047-36.188 19.909 0 36.049 16.202 36.049 36.188v7.047a6.22 6.22 0 0 1-6.222 6.245z" fill="#fff"/><path d="m186.233 190.302-.013-.015s6.119-11.8 0-22.698c7.636-12.109.916-25.881.916-25.881 16.083 3.634 28.098 18.059 28.098 35.303v7.047c0 3.459-2.774 6.245-6.22 6.245z" fill="#b9dae9"/><path d="M203.922 190.303v-.016s7.015-8.098 0-16.693c8.076-7.535.553-22.377.553-22.377a36.14 36.14 0 0 1 10.769 25.794v7.047a6.22 6.22 0 0 1-6.221 6.245zm-49.456 0v-.016s-7.015-8.098 0-16.693c-8.078-7.535-.554-22.377-.554-22.377a36.14 36.14 0 0 0-10.768 25.794v7.047c0 3.46 2.774 6.245 6.22 6.245z" fill="#1a1a1a"/><path d="M179.191 139.529c-20.605 0-37.337 16.796-37.337 37.482v7.046c0 4.155 3.372 7.539 7.51 7.539h59.654c4.138 0 7.509-3.384 7.509-7.539v-7.046c0-20.686-16.731-37.482-37.336-37.482m0 2.587c19.212 0 34.759 15.607 34.759 34.895v7.046c0 2.766-2.177 4.952-4.932 4.952h-59.654c-2.755 0-4.932-2.186-4.932-4.952v-7.046c0-19.288 15.547-34.895 34.759-34.895m-27.386-35.298c7.354 0 13.275 5.943 13.275 13.326v6.678c0 7.383-5.921 13.326-13.275 13.326-7.353 0-13.274-5.943-13.274-13.326v-6.678c0-7.383 5.921-13.326 13.274-13.326" fill="#1a1a1a"/><path d="M159.532 116.373a4.3 4.3 0 0 1-1.255 3.042 4.28 4.28 0 0 1-3.03 1.26c-2.366 0-4.284-1.927-4.284-4.302s1.918-4.302 4.284-4.302a4.28 4.28 0 0 1 3.03 1.26 4.3 4.3 0 0 1 1.255 3.042" fill="#fff"/><path d="M206.577 106.818c-7.354 0-13.274 5.944-13.274 13.326v11.009h26.547v-11.009c0-7.382-5.92-13.326-13.273-13.326" fill="#1a1a1a"/><path d="M214.303 116.373a4.294 4.294 0 0 1-4.285 4.301 4.293 4.293 0 0 1-4.285-4.301 4.293 4.293 0 0 1 4.285-4.302c2.366 0 4.285 1.926 4.285 4.302" fill="#fff"/><path d="M175.784.692c-8.851 0-16.138 7.315-16.138 16.202v50.453h10.307V16.894c0-3.334 2.512-5.855 5.831-5.855h6.813c3.32 0 5.832 2.521 5.832 5.855v50.453h10.308V16.894c0-8.887-7.288-16.202-16.14-16.202z" fill="#1a1a1a"/><path d="M179.191 3.288c-25.145 0-45.639 20.576-45.639 45.819v11.68c0 6.41 5.303 11.734 11.689 11.734h67.9c6.386 0 11.69-5.323 11.69-11.735v-11.68c0-25.243-20.495-45.818-45.64-45.818m0 10.349c19.575 0 35.332 15.819 35.332 35.47v11.68c0 .857-.527 1.385-1.382 1.385h-67.9c-.855 0-1.382-.528-1.382-1.386v-11.68c0-19.65 15.758-35.469 35.332-35.469" fill="#1a1a1a"/><path d="M139.917 46.868c-7.5 0-13.699 6.223-13.699 13.752v.815c0 16.352 13.272 29.677 29.56 29.677h46.825c16.287 0 29.561-13.325 29.561-29.677v-.815c0-7.529-6.199-13.752-13.7-13.752zm0 10.348h78.547c1.969 0 3.393 1.428 3.393 3.404v.815c0 10.798-8.499 19.33-19.254 19.33h-46.825c-10.755 0-19.253-8.532-19.253-19.33v-.815c0-1.976 1.424-3.404 3.392-3.404" fill="#1a1a1a"/><path d="M139.917 52.042c-4.734 0-8.546 3.825-8.546 8.578v.815c0 13.575 10.887 24.503 24.408 24.503h46.824c13.521 0 24.407-10.928 24.407-24.503v-.815c0-4.753-3.811-8.578-8.545-8.578z" fill="#ffb31c"/><path d="M139.917 50.748c-5.426 0-9.833 4.425-9.833 9.872v.815c0 14.269 11.483 25.796 25.696 25.796h46.823c14.214 0 25.696-11.527 25.696-25.796v-.815c0-5.447-4.408-9.872-9.834-9.872zm0 2.587h78.548c4.043 0 7.257 3.227 7.257 7.285v.815c0 12.88-10.288 23.21-23.119 23.21H155.78c-12.831 0-23.119-10.33-23.119-23.21v-.815c0-4.058 3.213-7.285 7.256-7.285" fill="#1a1a1a"/><path d="M154.799 72.65h48.758c8.921 0 16.102-7.21 16.102-16.166l.017-7.377c0-22.448-18.126-40.644-40.486-40.644s-40.446 18.196-40.486 40.644l-.013 7.377c0 8.956 7.187 16.165 16.107 16.165z" fill="#ffb31c"/><path d="M157.033 15.095a40.73 40.73 0 0 0-18.328 34.011l-.014 7.379c0 5.772 2.99 10.816 7.502 13.675l.011-23.981c.019-12.007 4.124-22.93 10.829-31.084" fill="#fff"/><path d="M191.462 10.366a11.02 11.02 0 0 1 2.121 6.528V72.65h9.974c8.921 0 16.102-7.21 16.102-16.165l.018-7.379c0-18.152-11.855-33.522-28.215-38.74" fill="#ff8c03"/><path d="M179.19 7.169c-23.056 0-41.733 18.792-41.774 41.935l-.013 7.38c0 9.65 7.783 17.458 17.396 17.458h48.758c9.611 0 17.389-7.808 17.391-17.456v-.003l.017-7.376c0-23.147-18.718-41.938-41.775-41.938m0 2.587c21.664 0 39.198 17.603 39.198 39.35l-.017 7.377v.002c0 8.262-6.585 14.872-14.814 14.872h-48.758c-8.229 0-14.818-6.61-14.818-14.87v-.002l.012-7.376c.039-21.751 17.534-39.353 39.197-39.353" fill="#1a1a1a"/><path d="M175.785 5.865c-6.086 0-10.986 4.919-10.986 11.028v50.453h28.784V16.893c0-6.11-4.9-11.028-10.986-11.028z" fill="#ffb31c"/><path d="M171.947 14.967h-2.578V68.53h2.578z" fill="#fff"/><path d="M175.784 4.572c-6.777 0-12.273 5.517-12.273 12.322v55.755h2.576V16.894c0-5.416 4.303-9.736 9.697-9.736h6.813c5.394 0 9.697 4.32 9.697 9.736v55.755h2.577V16.894c0-6.804-5.497-12.322-12.274-12.322zM33.799 355.893q0-2.943 1.704-4.654 1.705-1.712 4.637-1.712h22.499q.477.753.818 1.985.41 1.233.409 2.601 0 2.601-1.159 3.696-1.09 1.095-2.932 1.095H45.39v6.366h15.34q.477.753.818 1.985.41 1.163.41 2.532 0 2.601-1.092 3.696-1.09 1.096-2.931 1.095H45.39v7.187h17.522q.477.753.818 1.985a8.2 8.2 0 0 1 .409 2.601q0 2.601-1.16 3.765-1.09 1.094-2.93 1.094h-19.91q-2.93 0-4.636-1.711-1.704-1.71-1.704-4.654zm47.725 35.044q-.681.204-2.182.41-1.431.205-3 .205-1.5 0-2.727-.205-1.159-.205-1.977-.821t-1.296-1.643q-.408-1.095-.408-2.806v-20.534q0-1.574.545-2.669a6.6 6.6 0 0 1 1.704-2.053q1.091-.89 2.66-1.575a26.1 26.1 0 0 1 7.295-2.122 23 23 0 0 1 3.954-.342q3.273 0 5.182 1.301 1.91 1.231 1.909 4.107a7 7 0 0 1-.273 1.916 9 9 0 0 1-.682 1.642q-1.431.001-2.931.137-1.5.138-2.932.412t-2.728.615q-1.226.274-2.113.685zm27.341 0q-.682.204-2.182.41-1.431.205-3 .205-1.5 0-2.727-.205-1.16-.205-1.978-.821t-1.294-1.643q-.41-1.095-.41-2.806v-20.534q0-1.574.546-2.669a6.6 6.6 0 0 1 1.704-2.053q1.091-.89 2.659-1.575a26.1 26.1 0 0 1 7.295-2.122 23.3 23.3 0 0 1 3.955-.342q3.272 0 5.181 1.301 1.91 1.231 1.909 4.107 0 .958-.273 1.916a9 9 0 0 1-.681 1.642q-1.431.001-2.932.137-1.5.138-2.932.412t-2.727.615q-1.227.274-2.113.685zm49.43-16.564q0 4.243-1.296 7.597-1.295 3.286-3.681 5.544-2.318 2.259-5.591 3.423-3.273 1.163-7.295 1.164t-7.296-1.233q-3.272-1.232-5.659-3.491-2.317-2.327-3.613-5.612t-1.296-7.392q0-4.038 1.296-7.324t3.613-5.544q2.387-2.328 5.659-3.559 3.273-1.232 7.296-1.232t7.295 1.301q3.273 1.232 5.591 3.558 2.386 2.259 3.681 5.545 1.296 3.285 1.296 7.255m-23.863 0q0 4.175 1.568 6.434 1.637 2.19 4.5 2.19t4.364-2.259q1.567-2.258 1.567-6.365t-1.567-6.297q-1.57-2.259-4.432-2.259T136 368.076q-1.569 2.19-1.568 6.297m41.111 16.564q-.681.204-2.182.41-1.432.205-3 .205a16.6 16.6 0 0 1-2.727-.205q-1.16-.205-1.977-.821t-1.295-1.643q-.41-1.095-.41-2.806v-20.534q0-1.574.546-2.669a6.6 6.6 0 0 1 1.704-2.053q1.091-.89 2.66-1.575a26 26 0 0 1 7.295-2.122 23 23 0 0 1 3.954-.342q3.273 0 5.181 1.301 1.91 1.231 1.909 4.107a7 7 0 0 1-.272 1.916 9 9 0 0 1-.682 1.642q-1.432.001-2.932.137a30 30 0 0 0-2.931.412q-1.431.273-2.727.615-1.228.274-2.114.685zm46.021-41.068a22 22 0 0 1 2.932-.684q1.704-.274 3.068-.273 1.569 0 3 .342 1.5.273 2.659 1.026a4.97 4.97 0 0 1 1.841 1.917q.681 1.232.682 3.079v18.207h6.067q.41.753.819 1.985t.409 2.601q0 2.601-1.159 3.696t-2.932 1.095h-3.204v8.077q-.75.136-2.25.342-1.5.274-2.864.274-1.5 0-2.659-.137-1.16-.137-1.977-.616-.75-.548-1.159-1.506t-.409-2.601v-3.833h-17.113q-1.569-.821-2.727-2.395-1.09-1.643-1.091-3.97 0-1.301.341-2.875.34-1.574 1.158-2.737zm3.478 10.747h-.205l-9.068 12.867h9.273zm46.293 9.581q0-6.023-1.773-9.308-1.704-3.285-4.908-3.285t-4.909 3.285q-1.637 3.285-1.637 9.308t1.637 9.378q1.704 3.285 4.909 3.285t4.908-3.285q1.773-3.355 1.773-9.378m11.659 0q0 5.271-1.364 9.378-1.363 4.106-3.818 6.913-2.386 2.737-5.795 4.175-3.34 1.437-7.295 1.437-4.023 0-7.431-1.437a16.4 16.4 0 0 1-5.796-4.175q-2.387-2.807-3.75-6.913-1.296-4.107-1.296-9.378 0-5.27 1.296-9.308 1.363-4.107 3.75-6.844 2.455-2.808 5.796-4.244 3.408-1.437 7.431-1.438 3.954 0 7.295 1.438a15.3 15.3 0 0 1 5.795 4.244q2.455 2.737 3.818 6.844 1.364 4.038 1.364 9.308m22.226-20.328a22 22 0 0 1 2.932-.684q1.704-.274 3.068-.273 1.569 0 3 .342 1.5.273 2.659 1.026a5 5 0 0 1 1.841 1.917q.681 1.232.681 3.079v18.207h6.068q.409.753.819 1.985.409 1.232.409 2.601 0 2.601-1.16 3.696t-2.931 1.095h-3.205v8.077q-.75.136-2.25.342-1.499.274-2.863.274-1.5 0-2.659-.137-1.16-.137-1.977-.616-.75-.548-1.16-1.506-.408-.958-.408-2.601v-3.833H290.97q-1.567-.821-2.727-2.395-1.09-1.643-1.091-3.97 0-1.301.341-2.875.342-1.574 1.159-2.737zm3.477 10.747h-.205l-9.067 12.867h9.272zm6.211-258.7-2.234 1.364a33.56 33.56 0 0 0-13.512 15.797l-.004.006-.002.007c-3.89 9.454-3.208 20.11 1.65 28.987l-31.025 75.194c-4.396 10.653.696 22.994 11.308 27.406 10.612 4.413 22.906-.697 27.302-11.351l31.021-75.184c9.691-2.83 17.683-9.886 21.588-19.338l.003-.007.003-.005a33.73 33.73 0 0 0 1.565-20.766l-.619-2.548-19.915-8.282-6.044 14.648-7.207-2.997 6.043-14.647zm1.061 11.641 5.393 2.243-2.769 6.711c-1.78 4.315.334 9.437 4.632 11.224l10.44 4.341c4.298 1.788 9.401-.334 11.181-4.648l2.769-6.712 5.389 2.241a23.33 23.33 0 0 1-1.527 11.887 23.17 23.17 0 0 1-16.863 13.889l-2.701.54-33.046 80.093c-2.278 5.522-8.332 8.04-13.834 5.752s-8.009-8.364-5.729-13.887l33.05-80.103-1.528-2.299a23.31 23.31 0 0 1-2.145-21.783 23.2 23.2 0 0 1 7.288-9.489" fill="#1a1a1a"/><path d="M328.61 135.507c8.057 3.35 11.857 12.559 8.519 20.648l-33.5 81.191c-3.337 8.089-12.51 11.903-20.567 8.553-8.058-3.351-11.857-12.56-8.52-20.648l33.5-81.191c3.338-8.089 12.511-11.904 20.568-8.553" fill="#ccc"/><path d="M292.685 233.435a4.135 4.135 0 0 1-5.409 2.249 4.161 4.161 0 0 1 0-7.679 4.134 4.134 0 0 1 5.409 2.249 4.17 4.17 0 0 1 0 3.181" fill="#1a1a1a"/><path d="M315.352 107.7a28.4 28.4 0 0 0-11.432 13.366c-5.985 14.503.876 31.132 15.324 37.14a28.2 28.2 0 0 0 21.672 0 28.37 28.37 0 0 0 15.324-15.385 28.53 28.53 0 0 0 1.326-17.567l-12.74-5.297-4.742 11.491a3.39 3.39 0 0 1-4.447 1.849l-10.439-4.341a3.415 3.415 0 0 1-1.843-4.465L328.096 113z" fill="#ccc"/><path d="m344.826 119.957-4.742 11.491a3.39 3.39 0 0 1-4.446 1.849l-10.441-4.342a3.414 3.414 0 0 1-1.842-4.464l.638-1.548-21.946 12.72a28.5 28.5 0 0 0 4.493 12.039l-6.246 15.136 57.932-33.578a28.4 28.4 0 0 0-.66-4.006z" fill="#fff"/><path d="m315.241 106.255-.559.34a29.7 29.7 0 0 0-11.952 13.973l-.001.003-.001.003c-3.677 8.934-2.756 19.08 2.378 27.225l-31.754 76.959c-3.602 8.73.52 18.721 9.216 22.337s18.649-.522 22.251-9.252l31.749-76.95a29.61 29.61 0 0 0 20.862-17.574l.001-.002.001-.003a29.83 29.83 0 0 0 1.385-18.366l-.154-.637-14.535-6.045-5.234 12.687c-.456 1.107-1.66 1.608-2.764 1.149l-10.44-4.341a2.095 2.095 0 0 1-1.145-2.775l5.234-12.686zm.25 2.904 10.921 4.541-4.247 10.296c-.986 2.39.158 5.164 2.539 6.155l10.44 4.341c2.382.99 5.145-.159 6.131-2.549l4.249-10.296 10.916 4.539a27.2 27.2 0 0 1-1.39 16.14l-.001.003a27.05 27.05 0 0 1-19.678 16.21l-.676.135-32.256 78.177c-3.073 7.447-11.466 10.936-18.884 7.851s-10.894-11.509-7.822-18.956l32.26-78.188-.382-.574a27.22 27.22 0 0 1-2.502-25.422l.001-.002a27.1 27.1 0 0 1 10.381-12.401" fill="#1a1a1a"/><path d="M320.899 154.195c-3.728-1.55-7.614.066-9.157 3.808l-20.395 49.427c-1.543 3.742.066 7.643 3.793 9.193s7.614-.067 9.158-3.808l20.393-49.427c1.544-3.742-.065-7.643-3.792-9.193" fill="#939393"/><path d="M321.392 153c-4.312-1.793-9.054.179-10.841 4.508l-20.394 49.427c-1.786 4.329.179 9.09 4.491 10.883s9.055-.179 10.841-4.508l20.393-49.427c1.786-4.328-.178-9.09-4.49-10.883m-.986 2.391c3.143 1.306 4.397 4.347 3.095 7.502l-20.394 49.427c-1.301 3.155-4.33 4.414-7.473 3.108s-4.396-4.348-3.095-7.502l20.393-49.428c1.302-3.154 4.332-4.414 7.474-3.107" fill="#1a1a1a"/></g><defs><clipPath id="a"><path fill="#fff" d="M0 0h358v444H0z"/></clipPath></defs></svg>